<?xml version="1.0" encoding="UTF-8"?>
<svg xmlns="http://www.w3.org/2000/svg" xmlns:xlink="http://www.w3.org/1999/xlink" width="375pt" height="374.999991pt" viewBox="0 0 375 374.999991" version="1.2">
<defs>
<clipPath id="clip1">
  <path d="M 14 27.1875 L 368 27.1875 L 368 340 L 14 340 Z M 14 27.1875 "/>
</clipPath>
</defs>
<g id="surface1">
<g clip-path="url(#clip1)" clip-rule="nonzero">
<path style=" stroke:none;fill-rule:nonzero;fill:rgb(0%,62.748718%,7.449341%);fill-opacity:1;" d="M 352.539062 185.757812 C 342.363281 271.140625 265.535156 332.140625 180.933594 322.011719 C 159.472656 319.445312 138.632812 312.203125 120.117188 301.050781 C 102.933594 290.703125 89.570312 279.160156 78.3125 262.628906 C 66.292969 244.988281 62.121094 226.390625 58.050781 205.488281 C 55.171875 190.738281 52.769531 176.054688 52.078125 162.109375 C 50.15625 134.042969 57.328125 110.292969 64.5625 97.792969 C 61.484375 112.054688 58.605469 134.847656 63.039062 160.996094 C 65.003906 174.074219 68.347656 187.988281 71.910156 202.40625 C 73.960938 210.085938 76.339844 218.160156 78.410156 226.511719 C 80.011719 223.8125 81.636719 221.175781 83.160156 218.625 C 83.808594 217.761719 84.445312 216.90625 85.136719 216.019531 C 95.429688 202.933594 106.582031 192.988281 117.570312 186.058594 C 121.816406 183.765625 126.027344 181.289062 130.324219 179.230469 C 135.453125 176.972656 140.4375 175.34375 145.15625 174.273438 C 163.695312 170.015625 178.347656 173.679688 186.472656 177.480469 C 176.941406 176.773438 161.613281 176.335938 143.523438 182.679688 C 125.519531 188.78125 104.824219 202.511719 87.40625 224.421875 C 83.90625 228.824219 81.011719 232.800781 78.585938 236.296875 C 80.308594 234.835938 82.128906 233.042969 83.476562 232.332031 C 90.824219 228.402344 100.046875 227.652344 107.867188 226.941406 C 128.117188 224.859375 151.59375 227.039062 172.253906 217.703125 C 173.757812 217.117188 175.214844 216.503906 176.597656 215.878906 C 184.167969 212.445312 191.085938 208.121094 197.546875 204.078125 C 206.503906 198.5 214.808594 192.839844 224.003906 189.632812 C 231.453125 187.039062 239.351562 186.390625 246.632812 185.5 C 233.378906 175.8125 220.546875 166.425781 207.242188 157.1875 C 184.457031 141.246094 157.746094 133.125 133.984375 148.542969 C 125.160156 154.269531 116.679688 161.316406 109.941406 169.433594 C 108.996094 170.574219 108.058594 171.75 107.136719 172.949219 C 111.898438 159.550781 114.257812 145.132812 111.675781 129.394531 C 109.242188 116.496094 104.949219 104.0625 98.589844 92.597656 C 92.105469 81.414062 81.167969 71.703125 75.964844 59.890625 C 74.660156 57.007812 70.800781 45.785156 73.253906 43.292969 C 64.640625 50.304688 55.945312 56.878906 48.308594 64.269531 C 36.003906 76.433594 24.601562 91.574219 19.144531 107.535156 C 0.0625 163.339844 41.539062 220.402344 69.832031 264.578125 C 74.878906 272.457031 80.605469 279.898438 86.929688 286.792969 C 112.878906 315.097656 148.558594 333.375 186.636719 337.933594 C 275.210938 348.539062 355.59375 285.164062 366.171875 196.378906 C 375 122.3125 332.449219 53.96875 266.671875 27.191406 C 324.289062 55.273438 360.613281 118.007812 352.539062 185.757812 "/>
</g>
<path style=" stroke:none;fill-rule:nonzero;fill:rgb(19.219971%,53.729248%,8.239746%);fill-opacity:1;" d="M 141.355469 249.609375 C 141.441406 245.734375 139.695312 239.363281 132.53125 239.363281 C 125.890625 239.363281 123.09375 245.304688 122.65625 249.609375 Z M 122.65625 257.019531 C 122.917969 264.597656 128.859375 267.875 135.765625 267.875 C 140.742188 267.875 144.238281 267.097656 147.558594 265.976562 L 149.128906 273.214844 C 145.460938 274.765625 140.394531 275.882812 134.277344 275.882812 C 120.472656 275.882812 112.347656 267.527344 112.347656 254.695312 C 112.347656 243.066406 119.511719 232.125 133.140625 232.125 C 146.949219 232.125 151.492188 243.324219 151.492188 252.539062 C 151.492188 254.519531 151.316406 256.070312 151.140625 257.019531 L 122.65625 257.019531 "/>
<path style=" stroke:none;fill-rule:nonzero;fill:rgb(19.219971%,53.729248%,8.239746%);fill-opacity:1;" d="M 187.921875 249.871094 C 187.921875 248.835938 187.832031 247.890625 187.570312 247.027344 C 186.433594 243.152344 183.375 240.222656 178.832031 240.222656 C 172.804688 240.222656 168.347656 245.390625 168.347656 253.917969 C 168.347656 261.066406 172.015625 266.839844 178.746094 266.839844 C 182.765625 266.839844 186.261719 264.253906 187.480469 260.378906 C 187.832031 259.347656 187.921875 257.878906 187.921875 256.675781 Z M 198.667969 268.90625 C 198.667969 277.691406 196.832031 283.980469 192.375 287.941406 C 188.007812 291.816406 181.800781 293.023438 175.949219 293.023438 C 170.53125 293.023438 164.765625 291.816406 161.097656 289.664062 L 163.453125 281.65625 C 166.164062 283.207031 170.707031 284.839844 175.863281 284.839844 C 182.851562 284.839844 188.09375 281.222656 188.09375 272.179688 L 188.09375 268.5625 L 187.921875 268.5625 C 185.472656 272.265625 181.191406 274.765625 175.515625 274.765625 C 164.941406 274.765625 157.429688 266.152344 157.429688 254.261719 C 157.429688 240.484375 166.515625 232.125 176.734375 232.125 C 183.289062 232.125 187.046875 235.226562 189.054688 238.671875 L 189.230469 238.671875 L 189.667969 233.074219 L 199.015625 233.074219 C 198.839844 235.917969 198.667969 239.363281 198.667969 245.132812 L 198.667969 268.90625 "/>
<path style=" stroke:none;fill-rule:nonzero;fill:rgb(19.219971%,53.729248%,8.239746%);fill-opacity:1;" d="M 232.738281 254.519531 C 225.136719 254.4375 217.882812 255.988281 217.882812 262.359375 C 217.882812 266.492188 220.59375 268.390625 224 268.390625 C 228.367188 268.390625 231.425781 265.632812 232.476562 262.617188 C 232.738281 261.84375 232.738281 261.066406 232.738281 260.292969 Z M 243.222656 264.945312 C 243.222656 268.734375 243.394531 272.4375 243.917969 275.023438 L 234.222656 275.023438 L 233.4375 270.371094 L 233.171875 270.371094 C 230.640625 273.644531 226.183594 275.96875 220.59375 275.96875 C 212.027344 275.96875 207.222656 269.855469 207.222656 263.480469 C 207.222656 252.972656 216.75 247.542969 232.476562 247.628906 L 232.476562 246.941406 C 232.476562 244.183594 231.339844 239.621094 223.824219 239.621094 C 219.628906 239.621094 215.261719 240.910156 212.378906 242.722656 L 210.28125 235.828125 C 213.425781 233.9375 218.933594 232.125 225.660156 232.125 C 239.289062 232.125 243.222656 240.652344 243.222656 249.871094 L 243.222656 264.945312 "/>
<path style=" stroke:none;fill-rule:nonzero;fill:rgb(19.219971%,53.729248%,8.239746%);fill-opacity:1;" d="M 254.574219 245.5625 C 254.574219 240.742188 254.398438 236.691406 254.226562 233.074219 L 263.574219 233.074219 L 264.097656 239.363281 L 264.363281 239.363281 C 266.28125 236.085938 270.914062 232.125 277.992188 232.125 C 285.417969 232.125 293.105469 236.863281 293.105469 250.128906 L 293.105469 275.023438 L 282.359375 275.023438 L 282.359375 251.335938 C 282.359375 245.304688 280.085938 240.742188 274.234375 240.742188 C 269.953125 240.742188 266.984375 243.753906 265.847656 246.941406 C 265.496094 247.804688 265.320312 249.09375 265.320312 250.300781 L 265.320312 275.023438 L 254.574219 275.023438 L 254.574219 245.5625 "/>
</g>
</svg>
